<?xml version="1.0" encoding="UTF-8"?>
<svg id="_Слой_1" data-name="Слой 1" xmlns="http://www.w3.org/2000/svg" viewBox="0 0 927.64 981.47">
  <defs>
    <style>
      .cls-1 {
        fill: #fff;
        stroke-width: 38px;
      }

      .cls-1, .cls-2, .cls-3 {
        stroke: #fff;
      }

      .cls-1, .cls-3 {
        stroke-miterlimit: 30;
      }

      .cls-2 {
        stroke-linejoin: round;
        stroke-width: 31px;
      }

      .cls-2, .cls-3 {
        fill: #none;
        stroke-linecap: round;
      }

      .cls-3 {
        stroke-width: 41px;
      }
    </style>
  </defs>
  <path d="M303.05,405.96c5.48,0,9.95,4.46,9.95,9.95V940.01c0,5.48-4.46,9.95-9.95,9.95H29.95c-5.48,0-9.95-4.46-9.95-9.95V415.9c0-5.48,4.46-9.95,9.95-9.95H303.05m0-20H29.95c-16.54,0-29.95,13.41-29.95,29.95V940.01c0,16.54,13.41,29.95,29.95,29.95H303.05c16.54,0,29.95-13.41,29.95-29.95V415.9c0-16.54-13.41-29.95-29.95-29.95h0Z"/>
  <path d="M92,894.96c9.87,0,19.35,2,26.02,5.48,5.09,2.66,6.98,5.41,6.98,6.52s-1.9,3.86-6.98,6.52c-6.67,3.49-16.15,5.48-26.02,5.48s-19.35-2-26.02-5.48c-5.09-2.66-6.98-5.41-6.98-6.52s1.9-3.86,6.98-6.52c6.67-3.49,16.15-5.48,26.02-5.48m0-11c-24.3,0-44,10.3-44,23s19.7,23,44,23,44-10.3,44-23-19.7-23-44-23h0Z"/>
  <path d="M166.5,474.96c30.86,0,59.72,7.83,81.27,22.05,20.14,13.29,31.23,30.5,31.23,48.45s-11.09,35.16-31.23,48.45c-21.55,14.22-50.41,22.05-81.27,22.05s-59.72-7.83-81.27-22.05c-20.14-13.29-31.23-30.5-31.23-48.45s11.09-35.16,31.23-48.45c21.55-14.22,50.41-22.05,81.27-22.05m0-11c-68.21,0-123.5,36.49-123.5,81.5s55.29,81.5,123.5,81.5,123.5-36.49,123.5-81.5-55.29-81.5-123.5-81.5h0Z"/>
  <line class="cls-3" x1="103.5" y1="508.46" x2="229.5" y2="508.46"/>
  <line class="cls-3" x1="103.5" y1="579.46" x2="229.5" y2="579.46"/>
  <line class="cls-3" x1="81.68" y1="545.46" x2="252.23" y2="545.46"/>
  <path class="cls-3" d="M321.5,508.46h26.9c7.23,0,13.1,5.87,13.1,13.1v49.81c0,7.23-5.87,13.1-13.1,13.1h-26.9v-76h0Z"/>
  <path d="M64.5,114.46h0c9.38,0,17,7.62,17,17V393.46H47.5V131.46c0-9.38,7.62-17,17-17Z"/>
  <rect class="cls-1" x="39" y="133.96" width="52" height="82" rx="11.77" ry="11.77"/>
  <path class="cls-2" d="M164.94,107.01c39.25,38.41,39.93,101.36,1.52,140.61"/>
  <path class="cls-2" d="M211.54,58.89c65.55,64.15,66.69,169.29,2.54,234.85"/>
  <path class="cls-2" d="M254.97,14.5c90.07,88.14,91.63,232.6,3.49,322.67"/>
  <path d="M897.69,417.47c5.48,0,9.95,4.46,9.95,9.95V951.52c0,5.48-4.46,9.95-9.95,9.95h-273.11c-5.48,0-9.95-4.46-9.95-9.95V427.41c0-5.48,4.46-9.95,9.95-9.95h273.11m0-20h-273.11c-16.54,0-29.95,13.41-29.95,29.95V951.52c0,16.54,13.41,29.95,29.95,29.95h273.11c16.54,0,29.95-13.41,29.95-29.95V427.41c0-16.54-13.41-29.95-29.95-29.95h0Z"/>
  <path d="M835.64,906.47c9.87,0,19.35,2,26.02,5.48,5.09,2.66,6.98,5.41,6.98,6.52s-1.9,3.86-6.98,6.51c-6.67,3.49-16.15,5.49-26.02,5.49s-19.35-2-26.02-5.49c-5.09-2.66-6.98-5.41-6.98-6.51s1.9-3.86,6.98-6.52c6.67-3.49,16.15-5.48,26.02-5.48m0-11c-24.3,0-44,10.3-44,23s19.7,23,44,23,44-10.3,44-23-19.7-23-44-23h0Z"/>
  <path d="M761.14,486.47c30.86,0,59.72,7.83,81.27,22.05,20.14,13.29,31.23,30.5,31.23,48.45s-11.09,35.16-31.23,48.45c-21.55,14.22-50.41,22.05-81.27,22.05s-59.72-7.83-81.27-22.05c-20.14-13.29-31.23-30.5-31.23-48.45s11.09-35.16,31.23-48.45c21.55-14.22,50.41-22.05,81.27-22.05m0-11c-68.21,0-123.5,36.49-123.5,81.5s55.29,81.5,123.5,81.5,123.5-36.49,123.5-81.5-55.29-81.5-123.5-81.5h0Z"/>
  <line class="cls-3" x1="824.14" y1="519.97" x2="698.14" y2="519.97"/>
  <line class="cls-3" x1="824.14" y1="590.97" x2="698.14" y2="590.97"/>
  <line class="cls-3" x1="845.96" y1="556.97" x2="675.4" y2="556.97"/>
  <path class="cls-3" d="M566.14,519.97h26.9c7.23,0,13.1,5.87,13.1,13.1v49.81c0,7.23-5.87,13.1-13.1,13.1h-26.9v-76h0Z" transform="translate(1172.28 1115.94) rotate(180)"/>
  <path d="M846.14,125.97h34V387.97c0,9.38-7.62,17-17,17h0c-9.38,0-17-7.62-17-17V125.97h0Z" transform="translate(1726.28 530.94) rotate(-180)"/>
  <rect class="cls-1" x="836.64" y="145.47" width="52" height="82" rx="11.77" ry="11.77" transform="translate(1725.28 372.94) rotate(180)"/>
  <path class="cls-2" d="M762.7,118.52c-39.25,38.41-39.93,101.36-1.52,140.61"/>
  <path class="cls-2" d="M716.1,70.4c-65.55,64.15-66.69,169.29-2.54,234.85"/>
  <path class="cls-2" d="M672.67,26.01c-90.07,88.14-91.63,232.6-3.49,322.67"/>
</svg>